<svg id="Layer_5" enable-background="new 0 0 64 64" height="512" viewBox="0 0 64 64" width="512" xmlns="http://www.w3.org/2000/svg"><g><path d="m14.973 34.658c-.197-.98-1.019-1.658-1.965-1.658-.132 0-.269.014-.394.04-1.088.218-1.791 1.273-1.575 2.354l3.988 15.952c.197.979 1.021 1.655 1.972 1.655.134 0 .268-.013.388-.038 1.087-.218 1.79-1.273 1.574-2.354z"/><path d="m15 59.002h-12v1c0 .552.448 1 1 1h13c0-1.103-.897-2-2-2z"/><path d="m6.402 57.002 5.449-10.12-.908-3.634-7.282 13.754z"/><path d="m25 59c-1.103 0-2 .897-2 2h10v-2h-5z"/><path d="m30 56v1h4v-2h-3c-.552 0-1 .448-1 1z"/><circle cx="11" cy="21" r="2"/><path d="m28 18c0 1.043.805 1.892 1.825 1.982.454-1.116 1.083-2.141 1.853-3.044-.359-.57-.976-.938-1.678-.938-1.103 0-2 .897-2 2z"/><path d="m10 27h19.376c-.24-.921-.376-1.869-.376-2.82 0-.773.079-1.529.23-2.258-1.838-.36-3.23-1.98-3.23-3.922 0-.825.251-1.592.681-2.229l-2.867-3.226c-.547.281-1.158.455-1.814.455-.678 0-1.306-.185-1.866-.484l-5.784 6.31c.408.627.65 1.372.65 2.174 0 2.206-1.794 4-4 4s-4-1.794-4-4 1.794-4 4-4c.678 0 1.307.185 1.867.484l5.784-6.31c-.408-.627-.651-1.372-.651-2.174 0-2.206 1.794-4 4-4s4 1.794 4 4c0 .825-.251 1.592-.681 2.229l2.867 3.226c.547-.281 1.158-.455 1.814-.455 1.253 0 2.385.58 3.126 1.516 1.926-1.571 4.381-2.516 7.055-2.516h6.94l-.137-.38c-1.615-3.378-5.156-5.62-8.984-5.62-1.725 0-3.434.454-4.94 1.313l-.783.446-.524-.732c-2.256-3.148-5.901-5.027-9.753-5.027-5.598 0-10.398 3.808-11.673 9.26l-.166.711-.728.058c-3.607.29-6.433 3.352-6.433 6.971 0 3.86 3.141 7 7 7z"/><circle cx="22" cy="9" r="2"/><path d="m47.012 45h-.012-.01c-1.65.005-2.99 1.348-2.99 2.999l.001 5.001h-7.001c-.552 0-1 .448-1 1v4c0 .552.448 1 1 1l8-.001c2.757 0 5-2.243 5-5v-6.001c0-.802-.313-1.555-.879-2.121-.564-.564-1.312-.874-2.109-.877z"/><path d="m54 25h-1.785c-4.217 0-8.41-.587-12.465-1.746l-.883-.252c-2.144.071-3.867 1.837-3.867 3.998v7c0 4.963 4.037 9 9 9h.818 2.172c.003 0 .006-.001.01-.001h.002c.003 0 .007.001.01.001h.988c4.963 0 9-4.037 9-9v-6c0-1.654-1.346-3-3-3zm-15 4c0-1.105.895-2 2-2s2 .895 2 2-.895 2-2 2-2-.895-2-2zm7 11c-2.209 0-4-1.791-4-4h8c0 2.209-1.791 4-4 4zm5-9c-1.105 0-2-.895-2-2s.895-2 2-2 2 .895 2 2-.895 2-2 2z"/><path d="m60.458 27.285c.356-.994.542-2.049.542-3.105 0-5.062-4.118-9.18-9.181-9.18h-11.638c-5.063 0-9.181 4.118-9.181 9.18 0 1.055.186 2.111.542 3.105.453-.178.943-.285 1.458-.285 0-3.309 2.691-6 6-6l.274.039 1.024.292c3.878 1.108 7.887 1.669 11.917 1.669h1.785c2.414 0 4.434 1.721 4.899 4h.101c.516 0 1.005.107 1.458.285z"/><path d="m59 29v4c1.103 0 2-.897 2-2s-.897-2-2-2z"/><path d="m33 29c-1.103 0-2 .897-2 2s.897 2 2 2z"/><path d="m42.032 46.181c-2.094.786-3.588 2.654-3.946 4.819h3.915l-.001-3.001c0-.694.143-1.355.4-1.956z"/></g></svg>